<svg width="134" height="30" viewBox="0 0 134 30" fill="none" xmlns="http://www.w3.org/2000/svg">
<g clip-path="url(#clip0_712_8942)">
<path d="M49.4006 10.065H45.1648V20.8138H42.1089V10.065H37.8926V7.15625H49.4006V10.065Z" fill="#1C2642"/>
<path d="M50.485 14.8788H54.3339C54.3081 14.4423 54.134 14.0634 53.8117 13.7424C53.5022 13.4213 53.0316 13.2607 52.3998 13.2607C51.8324 13.2607 51.3811 13.4277 51.0459 13.7616C50.7106 14.0955 50.5237 14.4679 50.485 14.8788ZM54.5467 17.3638L57.003 18.0573C56.758 18.9434 56.2487 19.6754 55.475 20.2533C54.7013 20.8183 53.7343 21.1009 52.5738 21.1009C51.1813 21.1009 49.995 20.6386 49.0151 19.7139C48.048 18.7893 47.5645 17.55 47.5645 15.9961C47.5645 14.5065 48.0351 13.2929 48.9764 12.3554C49.9305 11.4179 51.0588 10.9492 52.3611 10.9492C53.8568 10.9492 55.0302 11.3859 55.8812 12.2591C56.7451 13.1195 57.177 14.3202 57.177 15.8613C57.177 16.3493 57.1577 16.6511 57.119 16.7667H50.427C50.4527 17.2932 50.6784 17.7363 51.1039 18.0958C51.5294 18.4426 52.0323 18.6159 52.6125 18.6159C53.6054 18.6159 54.2501 18.1986 54.5467 17.3638Z" fill="#1C2642"/>
<path d="M62.5278 13.6461C61.896 13.6461 61.3673 13.8579 60.9418 14.2817C60.5292 14.7055 60.3229 15.2898 60.3229 16.0346C60.3229 16.7667 60.5357 17.3446 60.9612 17.7683C61.3996 18.1921 61.9347 18.404 62.5665 18.404C63.0951 18.404 63.5271 18.2692 63.8623 17.9995C64.2105 17.717 64.4426 17.3767 64.5586 16.9786L67.1503 17.7683C66.9182 18.6801 66.396 19.4635 65.5837 20.1185C64.7843 20.7734 63.7785 21.1009 62.5665 21.1009C61.1223 21.1009 59.8974 20.6257 58.8917 19.6754C57.8988 18.7122 57.4023 17.4987 57.4023 16.0346C57.4023 14.5578 57.8859 13.3443 58.853 12.3939C59.8329 11.4308 61.0385 10.9492 62.4697 10.9492C63.7205 10.9492 64.7456 11.2703 65.545 11.9124C66.3444 12.5545 66.8602 13.3443 67.0923 14.2817L64.4619 15.0715C64.3459 14.6605 64.1267 14.3202 63.8043 14.0506C63.482 13.7808 63.0564 13.6461 62.5278 13.6461Z" fill="#1C2642"/>
<path d="M70.9125 15.185V20.8098H67.9727V6.86328H70.9125V11.8524C71.4927 11.2745 72.3115 10.9856 73.3688 10.9856C74.568 10.9856 75.4706 11.3452 76.0764 12.0643C76.6956 12.7706 77.0053 13.6824 77.0053 14.7997V20.8098H74.0651V15.3005C74.0651 14.7997 73.9297 14.4016 73.659 14.1062C73.4011 13.798 73.0142 13.6439 72.4985 13.6439C72.0472 13.6439 71.6732 13.7916 71.3767 14.087C71.0931 14.3695 70.9383 14.7354 70.9125 15.185Z" fill="#1C2642"/>
<path d="M82.9191 18.404C83.5247 18.404 84.0339 18.1986 84.4467 17.7876C84.8719 17.3767 85.0851 16.7859 85.0851 16.0154C85.0851 15.2449 84.8719 14.6605 84.4467 14.2625C84.0339 13.8515 83.5247 13.6461 82.9191 13.6461C82.3258 13.6461 81.8165 13.8515 81.3907 14.2625C80.9656 14.6734 80.7523 15.2577 80.7523 16.0154C80.7523 16.7731 80.9656 17.3638 81.3907 17.7876C81.8165 18.1986 82.3258 18.404 82.9191 18.404ZM82.9191 10.9492C84.3756 10.9492 85.5875 11.4243 86.5547 12.3747C87.5349 13.325 88.0249 14.5385 88.0249 16.0154C88.0249 17.4922 87.5349 18.7122 86.5547 19.6754C85.5875 20.6257 84.3756 21.1009 82.9191 21.1009C81.4748 21.1009 80.2622 20.6193 79.2827 19.6561C78.3026 18.6929 77.8125 17.4794 77.8125 16.0154C77.8125 14.5514 78.3026 13.3443 79.2827 12.3939C80.2622 11.4308 81.4748 10.9492 82.9191 10.9492Z" fill="#1C2642"/>
<path d="M91.889 24.4727H88.9492V11.2389H91.792V12.2213C92.0114 11.8875 92.3723 11.6049 92.8753 11.3738C93.3907 11.1298 93.971 11.0078 94.6156 11.0078C95.9826 11.0078 97.066 11.4765 97.865 12.414C98.6777 13.3386 99.0837 14.5329 99.0837 15.9969C99.0837 17.4609 98.6518 18.6681 97.7878 19.6184C96.9368 20.5559 95.8411 21.0246 94.5001 21.0246C93.2875 21.0246 92.4174 20.7035 91.889 20.0615V24.4727ZM95.5636 17.7884C95.9895 17.3646 96.202 16.7739 96.202 16.0162C96.202 15.2585 95.9895 14.6742 95.5636 14.2633C95.1508 13.8523 94.6354 13.6468 94.0161 13.6468C93.4105 13.6468 92.8945 13.8523 92.4693 14.2633C92.0565 14.6742 91.8501 15.2585 91.8501 16.0162C91.8501 16.7739 92.0565 17.3646 92.4693 17.7884C92.8945 18.1994 93.4105 18.4048 94.0161 18.4048C94.6354 18.4048 95.1508 18.1994 95.5636 17.7884Z" fill="#1C2642"/>
<path d="M102.237 14.8788H106.086C106.061 14.4423 105.886 14.0634 105.564 13.7424C105.255 13.4213 104.784 13.2607 104.152 13.2607C103.585 13.2607 103.133 13.4277 102.798 13.7616C102.463 14.0955 102.276 14.4679 102.237 14.8788ZM106.299 17.3638L108.755 18.0573C108.51 18.9434 108.001 19.6754 107.227 20.2533C106.454 20.8183 105.487 21.1009 104.326 21.1009C102.934 21.1009 101.747 20.6386 100.768 19.7139C99.8003 18.7893 99.3164 17.55 99.3164 15.9961C99.3164 14.5065 99.7873 13.2929 100.729 12.3554C101.683 11.4179 102.811 10.9492 104.113 10.9492C105.609 10.9492 106.782 11.3859 107.633 12.2591C108.497 13.1195 108.929 14.3202 108.929 15.8613C108.929 16.3493 108.91 16.6511 108.871 16.7667H102.179C102.205 17.2932 102.431 17.7363 102.856 18.0958C103.281 18.4426 103.785 18.6159 104.365 18.6159C105.357 18.6159 106.003 18.1986 106.299 17.3638Z" fill="#1C2642"/>
<path d="M119.309 6.86328V19.0954C119.309 19.6733 119.334 20.2447 119.386 20.8098H116.562C116.51 20.5016 116.484 20.1934 116.484 19.8851C116.253 20.219 115.904 20.4952 115.44 20.7135C114.989 20.9189 114.48 21.0217 113.912 21.0217C112.545 21.0217 111.411 20.553 110.508 19.6155C109.605 18.6651 109.154 17.458 109.154 15.994C109.154 14.5557 109.592 13.3678 110.469 12.4303C111.346 11.48 112.462 11.0049 113.815 11.0049C115.131 11.0049 115.994 11.3323 116.407 11.9873V6.86328H119.309ZM112.733 14.2603C112.32 14.6713 112.113 15.2555 112.113 16.0132C112.113 16.7709 112.32 17.3617 112.733 17.7855C113.158 18.1964 113.674 18.4019 114.279 18.4019C114.886 18.4019 115.395 18.1964 115.808 17.7855C116.233 17.3617 116.446 16.7709 116.446 16.0132C116.446 15.2555 116.233 14.6713 115.808 14.2603C115.395 13.8494 114.886 13.6439 114.279 13.6439C113.674 13.6439 113.158 13.8494 112.733 14.2603Z" fill="#1C2642"/>
<path d="M123.93 20.8139H120.99V11.2401H123.93V20.8139ZM121.241 9.52563C120.906 9.19179 120.738 8.78721 120.738 8.31204C120.738 7.83694 120.906 7.43239 121.241 7.0985C121.576 6.76461 121.976 6.59766 122.44 6.59766C122.917 6.59766 123.323 6.76461 123.659 7.0985C124.007 7.43239 124.181 7.83694 124.181 8.31204C124.181 8.78721 124.007 9.19179 123.659 9.52563C123.323 9.85955 122.917 10.0265 122.44 10.0265C121.976 10.0265 121.576 9.85955 121.241 9.52563Z" fill="#1C2642"/>
<path d="M124.959 18.1728C124.959 17.3638 125.224 16.7153 125.752 16.2273C126.28 15.7265 126.964 15.4118 127.802 15.2834L130.065 14.9366C130.529 14.8724 130.761 14.6541 130.761 14.2817C130.761 13.9864 130.632 13.7424 130.375 13.5497C130.129 13.3443 129.788 13.2415 129.349 13.2415C128.859 13.2415 128.466 13.3828 128.169 13.6653C127.886 13.935 127.731 14.2625 127.705 14.6477L125.152 14.1276C125.217 13.3314 125.61 12.6059 126.332 11.9509C127.067 11.2831 128.079 10.9492 129.368 10.9492C130.826 10.9492 131.896 11.2959 132.58 11.9894C133.275 12.6828 133.624 13.569 133.624 14.6477V19.3286C133.624 19.9322 133.662 20.4266 133.739 20.8119H131.09C131.026 20.5551 130.993 20.1955 130.993 19.7332C130.439 20.6322 129.537 21.0816 128.286 21.0816C127.267 21.0816 126.455 20.7991 125.849 20.234C125.256 19.6561 124.959 18.9691 124.959 18.1728ZM129.001 18.9627C129.504 18.9627 129.923 18.815 130.258 18.5196C130.594 18.2242 130.761 17.7363 130.761 17.0556V16.6318L128.943 16.9208C128.221 17.0363 127.86 17.3895 127.86 17.9803C127.86 18.2499 127.95 18.4811 128.131 18.6737C128.324 18.8663 128.614 18.9627 129.001 18.9627Z" fill="#1C2642"/>
<path d="M22.3401 17.3191C22.3403 17.5435 22.3997 17.7639 22.5124 17.9583C22.6251 18.1525 22.7871 18.3139 22.9822 18.426L27.0238 20.7496C27.2188 20.8616 27.44 20.9205 27.6651 20.9204C27.8903 20.9203 28.1114 20.8612 28.3062 20.7491C28.5012 20.6369 28.6631 20.4756 28.7755 20.2814C28.8881 20.0872 28.9473 19.8669 28.9473 19.6427V7.39618C28.9473 7.17216 28.8882 6.95198 28.7757 6.75791C28.6633 6.56384 28.5014 6.40269 28.3066 6.29065L17.6578 0.170785C17.4629 0.058852 17.2418 -4.59152e-05 17.0168 2.68565e-08C16.7919 4.59689e-05 16.5709 0.0590357 16.3759 0.171042C16.1811 0.283058 16.0192 0.44414 15.9066 0.638144C15.794 0.832149 15.7346 1.05225 15.7344 1.27634V5.92484C15.7345 6.14906 15.7937 6.36933 15.9062 6.56359C16.0186 6.75784 16.1802 6.91928 16.3751 7.03176L21.6981 10.0897C21.8931 10.2015 22.055 10.3626 22.1675 10.5567C22.2801 10.7509 22.3391 10.9711 22.3388 11.1952L22.3401 17.3191Z" fill="#82A5FF"/>
<path d="M14.4489 15.7354V21.8593C14.4488 22.0836 14.508 22.304 14.6204 22.4983C14.7329 22.6926 14.8947 22.854 15.0897 22.9663L19.1312 25.2898C19.3263 25.4018 19.5475 25.4607 19.7726 25.4606C19.9977 25.4605 20.2188 25.4014 20.4138 25.2892C20.6087 25.1771 20.7705 25.0157 20.8831 24.8216C20.9955 24.6274 21.0548 24.4071 21.0548 24.1829V11.9364C21.0547 11.712 20.9953 11.4916 20.8825 11.2973C20.7699 11.103 20.6078 10.9417 20.4127 10.8295L9.76536 4.70692C9.57042 4.59456 9.34929 4.53531 9.12414 4.53516C8.89898 4.53499 8.67775 4.59393 8.48273 4.70601C8.28772 4.8181 8.12579 4.97939 8.01328 5.17363C7.90075 5.36788 7.8416 5.58823 7.8418 5.81248V10.461C7.84147 10.6851 7.90054 10.9054 8.01304 11.0995C8.12554 11.2936 8.28748 11.4547 8.48251 11.5666L13.8082 14.6285C14.0031 14.7409 14.1649 14.9023 14.2773 15.0966C14.3898 15.2908 14.4489 15.5111 14.4489 15.7354Z" fill="#0077CC"/>
<path d="M12.5214 15.3674L1.87274 9.24894C1.67771 9.13693 1.45653 9.07803 1.23142 9.07813C1.00629 9.07822 0.785169 9.1373 0.590249 9.24949C0.395329 9.36168 0.233481 9.52294 0.120959 9.71718C0.0084379 9.91133 -0.0507931 10.1316 -0.0507812 10.3558V22.6037C-0.05083 22.8278 0.00835818 23.0479 0.12083 23.242C0.233303 23.436 0.395094 23.5972 0.589938 23.7092L7.19711 27.5028L11.2387 29.8264C11.4336 29.9388 11.6547 29.998 11.8798 29.9981C12.105 29.9983 12.3262 29.9394 12.5213 29.8273C12.7163 29.7152 12.8782 29.554 12.9908 29.3597C13.1032 29.1655 13.1624 28.945 13.1622 28.7208V16.4743C13.1621 16.2501 13.1028 16.0298 12.9904 15.8356C12.8779 15.6413 12.7162 15.4799 12.5214 15.3674Z" fill="#004ED6"/>
</g>
<defs>
<clipPath id="clip0_712_8942">
<rect width="133" height="30" fill="white" transform="translate(0.738281)"/>
</clipPath>
</defs>
</svg>
